<svg width="690" height="690" xmlns="http://www.w3.org/2000/svg" preserveAspectRatio="xMidYMid meet" version="1.0">

 <g>
  <title>Layer 1</title>
  <rect id="svg_3" height="508" width="553" y="110" x="81" stroke="#000" fill="#ffffff"/>
  <g id="svg_1" fill="#000000" transform="translate(0.000000,690.000000) scale(0.100000,-0.100000)">
   <path fill="#f6416c" id="svg_2" d="m830,6870c-239,-32 -512,-206 -642,-410c-63,-99 -126,-234 -138,-295c-23,-126 -29,-659 -29,-2695c0,-2037 6,-2569 29,-2695c12,-61 88,-223 143,-305c46,-67 154,-176 222,-225c90,-64 223,-132 290,-150c126,-33 468,-36 2905,-32c1799,3 2406,7 2470,16c65,9 109,23 187,61c238,114 367,240 486,475c59,117 66,145 77,322c13,198 13,4868 0,5066c-11,177 -18,205 -77,322c-62,123 -115,198 -192,276c-129,129 -333,239 -481,260c-65,9 -698,13 -2640,15c-1405,1 -2580,-2 -2610,-6zm3691,-1610c194,-20 424,-78 624,-157c122,-48 316,-145 384,-192c56,-38 56,-39 54,-87c-1,-51 -73,-314 -149,-546c-48,-147 -55,-156 -114,-143c-16,4 -100,50 -187,102c-277,168 -435,241 -591,272c-74,15 -295,13 -363,-3c-233,-54 -324,-304 -164,-445c70,-61 143,-90 525,-211c224,-71 418,-144 521,-196c255,-127 454,-358 521,-603c18,-66 21,-105 22,-291c0,-206 -1,-219 -27,-303c-36,-117 -76,-202 -134,-288c-181,-270 -495,-442 -912,-499c-107,-15 -379,-15 -501,0c-418,50 -831,220 -1142,468c-115,92 -114,90 -84,214c32,135 150,525 177,589c39,89 73,81 229,-53c334,-286 595,-414 917,-449c362,-39 586,74 543,274c-17,79 -45,130 -106,187c-73,69 -146,101 -469,204c-349,112 -466,156 -597,223c-253,131 -424,332 -489,574c-26,95 -36,320 -21,449c37,311 248,603 547,755c148,75 385,141 570,158c90,8 319,6 416,-3zm-2434,-83c17,-17 18,-100 18,-1732c0,-1633 -1,-1715 -18,-1732c-16,-17 -47,-18 -412,-18c-365,0 -396,1 -412,18c-17,17 -18,100 -18,1731c0,1833 -3,1739 48,1749c12,3 192,4 399,3c348,-1 379,-2 395,-19z"/>
  </g>
 </g>
</svg>