<?xml version="1.0" standalone="no"?>
<!DOCTYPE svg PUBLIC "-//W3C//DTD SVG 20010904//EN"
 "http://www.w3.org/TR/2001/REC-SVG-20010904/DTD/svg10.dtd">
<svg version="1.0" xmlns="http://www.w3.org/2000/svg"
 width="690.000000pt" height="690.000000pt" viewBox="0 0 690.000000 690.000000"
 preserveAspectRatio="xMidYMid meet">

<g transform="translate(0.000000,690.000000) scale(0.100000,-0.100000)"
fill="#f6416c" stroke="none">
<path d="M830 6870 c-239 -32 -512 -206 -642 -410 -63 -99 -126 -234 -138
-295 -23 -126 -29 -659 -29 -2695 0 -2037 6 -2569 29 -2695 12 -61 88 -223
143 -305 46 -67 154 -176 222 -225 90 -64 223 -132 290 -150 126 -33 468 -36
2905 -32 1799 3 2406 7 2470 16 65 9 109 23 187 61 238 114 367 240 486 475
59 117 66 145 77 322 13 198 13 4868 0 5066 -11 177 -18 205 -77 322 -62 123
-115 198 -192 276 -129 129 -333 239 -481 260 -65 9 -698 13 -2640 15 -1405 1
-2580 -2 -2610 -6z m3691 -1610 c194 -20 424 -78 624 -157 122 -48 316 -145
384 -192 56 -38 56 -39 54 -87 -1 -51 -73 -314 -149 -546 -48 -147 -55 -156
-114 -143 -16 4 -100 50 -187 102 -277 168 -435 241 -591 272 -74 15 -295 13
-363 -3 -233 -54 -324 -304 -164 -445 70 -61 143 -90 525 -211 224 -71 418
-144 521 -196 255 -127 454 -358 521 -603 18 -66 21 -105 22 -291 0 -206 -1
-219 -27 -303 -36 -117 -76 -202 -134 -288 -181 -270 -495 -442 -912 -499
-107 -15 -379 -15 -501 0 -418 50 -831 220 -1142 468 -115 92 -114 90 -84 214
32 135 150 525 177 589 39 89 73 81 229 -53 334 -286 595 -414 917 -449 362
-39 586 74 543 274 -17 79 -45 130 -106 187 -73 69 -146 101 -469 204 -349
112 -466 156 -597 223 -253 131 -424 332 -489 574 -26 95 -36 320 -21 449 37
311 248 603 547 755 148 75 385 141 570 158 90 8 319 6 416 -3z m-2434 -83
c17 -17 18 -100 18 -1732 0 -1633 -1 -1715 -18 -1732 -16 -17 -47 -18 -412
-18 -365 0 -396 1 -412 18 -17 17 -18 100 -18 1731 0 1833 -3 1739 48 1749 12
3 192 4 399 3 348 -1 379 -2 395 -19z"/>
</g>
</svg>
